<svg xmlns="http://www.w3.org/2000/svg" width="836.000000pt" height="609.000000pt" version="1.0" viewBox="0 0 836.000000 609.000000"><path d="M143.3 5.4c-7.9 2.5-16 9.2-19.7 16.4-.8 1.6-28.6 72-61.7 156.3C12.6 303.9 1.7 332.6 1.3 337.6 0 352 8 365.3 21.9 372.2c3.8 1.9 6.2 2.3 14.1 2.3h9.5l10.5-5.4c5.8-2.9 35.9-18.6 66.8-34.8 31-16.2 56.6-29.2 56.9-28.9.4.3-4.4 46.6-10.6 102.8-12.3 111.7-12.1 107-6.7 117.6 1.4 2.7 4.8 7 7.6 9.5 13.4 12.1 33.6 11.8 46.9-.7 2.9-2.8 27.5-28 54.4-56 40.6-42 49.2-50.5 49.9-49 .4 1.1 8.5 35.9 17.9 77.4 9.5 41.5 18.1 77.4 19.1 79.7 3.2 6.9 9.3 12.9 16.6 16.5 6 3 7.6 3.3 15.2 3.3 9.5 0 14.9-1.9 22.2-7.7 4.8-3.8 9.3-12.7 11-21.5.9-4.7.8-7.3-.5-13.3-.9-4.1-2.3-11.3-3.2-16-.9-4.7-10.4-47.3-21.2-94.7l-19.6-86.2 19-19.8c10.4-10.9 21.9-23 25.4-27 3.5-3.9 6.9-7.1 7.5-7.2.6-.1 27.8 18.3 60.5 40.7 32.7 22.4 77.3 53 99.1 68 21.8 15 41.7 28.1 44.1 29.2 6.7 3 15.2 3.6 22.3 1.6 24.1-6.9 33.7-34.6 19-54.7-2.5-3.4-10-9.1-30-22.8-14.6-10.1-26.8-18.7-27.2-19.2-.3-.5 37.1-.9 92.8-.9 102.8 0 100.2.1 110-6.2 5.5-3.5 9.9-8.7 12.8-14.9 1.5-3.4 2-6.6 2-14 0-8.7-.3-10.1-3-15.7-3.6-7.2-9.2-12.4-16.9-16.1l-5.6-2.6-97-.2c-90.3-.1-97-.3-96.7-1.8.2-1 14.4-40.9 31.5-88.9l31.2-87.1V99c0-7.7-.3-9.2-3.3-15.2-3.7-7.6-9.1-12.8-16.7-16.4-14.8-6.9-33.7-1.7-42.9 11.9-2.6 3.9-12.6 31-40.7 109.7-20.4 57.5-37.7 106-38.3 107.8l-1.2 3.3-27.9-19.1c-15.4-10.6-28.1-19.3-28.3-19.5-.2-.2 16.2-17.5 36.4-38.5 20.3-21 38.1-40 39.5-42.2 3.9-5.8 5.2-11.5 4.7-20.5-.5-9.5-3.3-15.8-9.8-22.3-6.6-6.7-12.8-9.4-22.4-9.8-9-.5-14.1.7-20.6 4.8-2.5 1.6-22.9 22-45.4 45.4-22.5 23.5-41.3 42.6-41.6 42.6-.4 0-1.3-.7-2-1.5-2.7-3.2-102.5-70.9-107.2-72.7-6.6-2.5-17.1-2.4-24.2.2-6.1 2.3-13.6 8.5-17.1 14-3 4.7-5.5 13.2-5.5 18.4 0 2.3 8.3 40.6 18.6 85.3l18.6 81.2-31.3 32.5c-17.2 17.9-31.4 32.4-31.5 32.3-.2-.1 3.7-36.7 8.7-81.2 4.9-44.6 8.9-83.8 8.9-87.2 0-12.5-8-25.2-19.6-30.9-6.4-3.1-16.2-4.2-23-2.5-3.8 1-79.8 39.8-105.2 53.8-3.4 1.9-6.2 3.2-6.2 2.9 0-.3 19.2-49.5 42.7-109.3l42.7-108.8.1-9c0-7.9-.4-9.7-2.8-14.7-3.6-7.3-11.9-15-19.2-17.7-6.4-2.4-16.7-2.7-23.2-.7zm221.8 261.2 8.1 5.7-6.3 6.3c-6.9 7-7 7-8.7-1.1-.6-2.8-1.8-7.8-2.6-11.3-1.8-7.6-2-7.6 9.5.4z"/></svg>